<?xml version="1.0" standalone="no"?>
<!DOCTYPE svg PUBLIC "-//W3C//DTD SVG 20010904//EN"
 "http://www.w3.org/TR/2001/REC-SVG-20010904/DTD/svg10.dtd">
<svg version="1.0" xmlns="http://www.w3.org/2000/svg"
 width="512.000000pt" height="512.000000pt" viewBox="0 0 512.000000 512.000000"
 preserveAspectRatio="xMidYMid meet">
<metadata>
Created by potrace 1.14, written by Peter Selinger 2001-2017
</metadata>
<g transform="translate(0.000000,512.000000) scale(0.100000,-0.100000)"
fill="#000000" stroke="none">
<path d="M829 5109 c-328 -21 -498 -78 -623 -209 -127 -134 -175 -287 -196
-630 -5 -91 -10 -255 -10 -366 l0 -200 83 27 c45 16 271 82 502 149 1003 289
1265 382 1484 527 143 95 325 286 585 616 l77 97 -888 -1 c-488 -1 -945 -6
-1014 -10z"/>
<path d="M4246 5099 c-3 -8 -19 -57 -36 -109 -41 -125 -138 -318 -199 -400
-27 -36 -109 -124 -182 -195 -255 -249 -491 -409 -926 -629 -195 -98 -210
-111 -291 -258 -64 -117 -108 -225 -127 -319 -9 -41 -22 -96 -30 -123 -22 -73
-19 -132 6 -157 33 -33 119 -21 221 33 159 82 500 317 853 587 341 261 403
306 480 350 234 134 364 126 434 -29 42 -93 17 -342 -45 -448 -78 -133 -381
-361 -884 -664 l-205 -123 -162 -325 c-466 -932 -690 -1442 -747 -1700 -71
-323 -57 -505 41 -546 186 -78 682 375 1268 1161 78 105 285 390 460 635 377
527 675 938 832 1146 l113 151 0 424 c-1 675 -18 937 -71 1099 -84 257 -261
389 -577 429 -168 22 -222 24 -226 10z"/>
<path d="M1649 3346 c-191 -86 -754 -221 -1189 -287 -153 -23 -319 -29 -408
-16 l-53 8 4 -1133 c3 -785 8 -1161 16 -1223 29 -222 84 -365 180 -468 170
-181 392 -227 1093 -227 l277 0 5 33 c2 17 9 84 15 147 33 337 172 814 417
1426 57 144 104 266 104 271 0 5 -35 25 -77 45 -156 70 -253 166 -329 323 -76
157 -103 322 -84 512 14 141 30 208 91 385 52 154 62 230 29 235 -8 2 -49 -13
-91 -31z"/>
<path d="M5041 1873 c-93 -187 -221 -412 -325 -573 -64 -99 -794 -1061 -955
-1259 l-36 -44 300 6 c165 4 343 11 395 17 219 25 368 81 473 179 195 184 231
398 225 1349 l-3 473 -74 -148z"/>
</g>
</svg>
